<svg width="150" height="150" viewBox="0 0 150 150" fill="none" xmlns="http://www.w3.org/2000/svg">
<g clip-path="url(#clip0)">
<path d="M26.1829 79.0506C19.9324 79.0506 14.864 84.1174 14.864 90.3695C14.864 90.8515 14.9034 91.3259 14.964 91.7912C15.6658 97.3703 20.4143 101.685 26.1814 101.685C32.1046 101.685 36.9608 97.1324 37.4534 91.3335C37.4791 91.0167 37.5003 90.6939 37.5003 90.368C37.5019 84.1174 32.435 79.0506 26.1829 79.0506ZM20.5174 86.1045L22.8242 88.4128C22.6454 88.7205 22.5044 89.0524 22.4135 89.4071H19.1609C19.3276 88.1764 19.799 87.0518 20.5174 86.1045ZM19.1457 91.3668H22.4241C22.5166 91.7154 22.653 92.0458 22.8349 92.349L20.522 94.6604C19.8051 93.7206 19.3231 92.596 19.1457 91.3668ZM25.2038 97.4007C23.9777 97.2294 22.8636 96.7489 21.9209 96.0381L24.2217 93.7358C24.5248 93.9131 24.8567 94.0435 25.2038 94.1344V97.4007ZM25.2038 86.6046C24.8476 86.6986 24.5142 86.838 24.2035 87.0214L21.8982 84.7161C22.8455 83.9962 23.9701 83.5203 25.2038 83.349V86.6046ZM27.1636 83.346C28.3973 83.5172 29.5234 83.9962 30.4692 84.7146L28.1654 87.0199C27.8562 86.8365 27.5197 86.6971 27.1651 86.6031L27.1636 83.346ZM27.1636 97.3976V94.1359C27.5122 94.0435 27.8411 93.9147 28.1442 93.7358L30.4465 96.0381C29.5037 96.7489 28.3882 97.2264 27.1636 97.3976ZM31.85 94.671L29.5295 92.3475C29.7114 92.0428 29.8584 91.7169 29.9509 91.3683H33.2035C33.0307 92.593 32.5684 93.7267 31.85 94.671ZM29.9554 89.4071C29.863 89.0524 29.7235 88.7205 29.5447 88.4128L31.8545 86.1045C32.5684 87.0518 33.0398 88.1764 33.2095 89.4086H29.9554V89.4071Z" fill="black"/>
<path d="M120.167 79.0506C113.917 79.0506 108.848 84.1174 108.848 90.3695C108.848 90.8515 108.888 91.3259 108.948 91.7912C109.65 97.3703 114.399 101.685 120.164 101.685C126.087 101.685 130.944 97.1324 131.438 91.3335C131.463 91.0167 131.485 90.6939 131.485 90.368C131.488 84.1174 126.419 79.0506 120.167 79.0506ZM114.502 86.1045L116.807 88.4128C116.628 88.7205 116.487 89.0524 116.396 89.4071H113.144C113.312 88.1764 113.783 87.0518 114.502 86.1045ZM113.132 91.3668H116.41C116.502 91.7154 116.639 92.0458 116.821 92.349L114.509 94.6604C113.789 93.7206 113.306 92.596 113.132 91.3668ZM119.188 97.4007C117.962 97.2294 116.848 96.7489 115.905 96.0381L118.206 93.7358C118.509 93.9131 118.841 94.0435 119.188 94.1344V97.4007ZM119.188 86.6046C118.832 86.6986 118.499 86.838 118.188 87.0214L115.883 84.7161C116.83 83.9962 117.953 83.5203 119.188 83.349V86.6046ZM121.149 83.346C122.383 83.5172 123.509 83.9962 124.455 84.7146L122.15 87.0199C121.841 86.8365 121.504 86.6941 121.149 86.6031V83.346ZM121.149 97.3976V94.1359C121.498 94.0435 121.827 93.9147 122.13 93.7358L124.432 96.0381C123.49 96.7489 122.373 97.2264 121.149 97.3976ZM125.834 94.671L123.514 92.3505C123.696 92.0443 123.844 91.72 123.935 91.3699H127.188C127.015 92.593 126.554 93.7267 125.834 94.671ZM123.94 89.4071C123.847 89.0524 123.709 88.7205 123.529 88.4128L125.837 86.1045C126.553 87.0518 127.023 88.1764 127.194 89.4086H123.94V89.4071Z" fill="black"/>
<path d="M147.346 73.191V64.8155C147.346 63.4681 146.367 62.3268 145.036 62.1192C141.843 61.619 136.182 60.6748 133.639 59.8912C129.992 58.7665 115.903 52.8009 111.024 51.6808C106.143 50.5608 84.1389 44.58 63.0637 51.8855C59.4974 53.1207 43.4541 60.7899 34.0207 64.7776C31.2425 64.8383 3.74394 70.5705 2.27982 74.4991C0.815694 78.4292 0.35645 80.3359 0.0866632 81.3332C-0.183124 82.3305 0.0866631 87.1033 2.12977 90.4271C4.21228 91.6048 8.22119 92.3959 12.8561 92.9264C12.803 92.643 12.7454 92.3641 12.7091 92.0776C12.6287 91.4653 12.5908 90.906 12.5908 90.3725C12.5908 82.8776 18.6868 76.7786 26.1832 76.7786C33.6797 76.7786 39.7756 82.8761 39.7756 90.3725C39.7756 90.7575 39.7499 91.1395 39.7211 91.5153C39.6498 92.3565 39.4983 93.1735 39.2785 93.9601C39.2891 93.9601 39.3149 93.9601 39.3149 93.9601L106.786 92.6021C106.756 92.4278 106.716 92.255 106.693 92.0776C106.613 91.4684 106.575 90.9076 106.575 90.3725C106.575 82.8776 112.671 76.7801 120.168 76.7801C127.664 76.7801 133.762 82.8761 133.762 90.3725C133.762 90.4013 133.758 90.4256 133.757 90.4529L134.045 90.4286L145.581 88.2567C145.581 88.2567 149.999 85.9044 149.999 79.4325C150 75.1159 147.346 73.191 147.346 73.191ZM80.4165 65.2505L55.2187 66.022C55.6825 62.2465 53.4469 61.3992 53.4469 61.3992C63.4638 52.3068 83.6524 51.9991 83.6524 51.9991L80.4165 65.2505ZM108.696 64.0971L85.7334 64.8686L87.8144 52.0006C99.682 51.8461 106.462 54.4651 106.462 54.4651L109.852 59.9366L108.696 64.0971ZM121.641 64.0183H115.243L108.847 55.2351C113.646 57.1448 117.486 59.0272 119.774 60.217C121.162 60.9385 121.92 62.4799 121.641 64.0183Z" fill="black"/>
</g>
<defs>
<clipPath id="clip0">
<rect width="150" height="150" fill="white"/>
</clipPath>
</defs>
</svg>
