<?xml version="1.0" encoding="utf-8"?>
<!-- Svg Vector Icons : http://www.onlinewebfonts.com/icon -->
<!DOCTYPE svg PUBLIC "-//W3C//DTD SVG 1.1//EN" "http://www.w3.org/Graphics/SVG/1.1/DTD/svg11.dtd">
<svg version="1.1" xmlns="http://www.w3.org/2000/svg" xmlns:xlink="http://www.w3.org/1999/xlink" x="0px" y="0px" viewBox="0 0 1000 1000" enable-background="new 0 0 1000 1000" xml:space="preserve">
<metadata> Svg Vector Icons : http://www.onlinewebfonts.com/icon </metadata>
<g><g transform="translate(0.000000,512.000000) scale(0.100000,-0.100000)"><path d="M9018.2,5007c-26.8-7.7-76.6-30.7-111.1-47.9C8832.4,4920.8,4470,253.8,4435.5,175.3c-13.4-30.7-30.6-55.6-38.3-55.6c-7.7,0-15.3,298.9-19.2,666.7l-5.7,664.8l-49.8,107.3c-67.1,143.7-183.9,256.7-339.1,329.5l-128.4,61.3l-829.6,5.7c-898.5,5.8-927.3,3.8-1134.2-101.5c-151.3-76.6-404.2-275.9-603.5-477C741.8,828.6,310.7,112.1,146-522.1c-46-170.5-46-182-46-1197.4v-1025l49.8-107.3c67.1-143.7,183.9-256.7,339.1-329.5c107.3-49.8,153.3-59.4,320-67.1l193.5-7.7l23-178.2c80.5-632.2,521.1-1132.2,1153.3-1304.7c172.4-46,555.6-46,728,0c285.5,78.5,488.5,193.5,695.4,392.8c272.1,260.5,425.3,580.5,463.6,965.6l13.4,128.4h1067.1h1067.1l21.1-168.6c26.8-212.7,101.5-434.9,201.2-607.3c101.5-174.3,367.8-440.6,542.2-542.2c492.4-287.4,1120.8-275.9,1597.8,28.7c59.4,38.3,166.7,126.4,237.6,195.4c272.1,260.5,425.3,580.5,463.6,963.7l13.4,130.3h128.4c69,0,160.9,9.6,203.1,21.1c99.6,28.7,228,157.1,256.7,256.7c28.7,103.5,28.7,2709,0,2812.5c-23,84.3-113,193.5-197.3,239.5c-53.6,30.6-224.1,32.6-2061.4,42.1l-2000.1,9.6L7294,1924.5l1676.4,1795.1l9.6-841.1c7.7-728,13.4-844.9,40.2-871.7c15.3-15.3,84.3-38.3,149.5-49.8c143.7-23,205-51.7,287.4-134.1c185.8-185.8,180.1-473.2-13.4-653.3c-187.7-176.3-456-172.4-636.1,7.7c-76.6,76.6-132.2,195.4-134.1,279.7c0,172.4-153.3,254.8-262.5,145.6c-46-46-47.9-57.5-38.3-174.3c23-247.1,178.2-480.9,392.7-595.8c469.4-251,1021.1,19.2,1118.9,549.8c26.8,143.7-1.9,325.7-72.8,467.5c-88.1,172.4-297,342.9-471.3,385.1l-53.6,11.5v902.4V4051l113,128.3c153.3,174.3,182,233.7,182,385.1c0,182-84.3,323.8-245.2,406.2C9253.9,5012.8,9091,5031.9,9018.2,5007z M3627.1,1296.1c28.7-21.1,70.9-63.2,92-92c38.3-49.8,40.2-76.6,40.2-547.9c0-473.2-1.9-498.1-40.2-549.9c-70.9-93.9-145.6-132.2-325.7-157.1c-344.9-51.8-680.1-180.1-900.4-346.8c-55.6-42.2-153.3-136-220.3-210.7c-67.1-76.6-145.6-149.4-174.3-164.8c-76.6-40.2-837.2-38.3-913.9,1.9c-78.5,40.2-151.3,134.1-166.7,214.6c-17.2,88.1,32.6,367.8,99.6,570.9c168.6,513.4,570.9,1084.4,910,1291.3c63.2,40.2,82.4,40.2,806.6,36.4C3548.5,1336.3,3577.2,1334.4,3627.1,1296.1z M9144.7-543.2c101.6-74.7,132.2-136,132.2-256.7s-30.6-182-132.2-256.7c-51.7-40.2-63.2-40.2-2299-46l-2247.3-3.8l-65.1,44.1c-203.1,136-203.1,388.9,0,525l65.1,44.1l2247.3-3.8C9081.4-502.9,9092.9-502.9,9144.7-543.2z M5763.2-1457c199.2-134.1,203.1-377.4,11.5-519.2c-51.7-38.3-76.6-40.2-626.5-40.2c-549.8,0-574.8,1.9-626.5,40.2c-191.6,141.8-187.7,385.1,11.5,519.2c63.2,44.1,74.7,44.1,615,44.1C5688.5-1412.9,5700-1412.9,5763.2-1457z M2766.9-2359.3c55.6-15.3,141.8-46,191.6-70.9c124.5-59.4,348.7-287.4,411.9-419.6c166.7-354.4,103.5-751-170.5-1036.5c-364-381.3-961.7-377.4-1323.8,9.6c-262.5,281.6-325.7,651.4-172.4,1007.7c72.8,166.7,289.3,383.2,456,456C2349.2-2332.5,2584.8-2311.5,2766.9-2359.3z M7977.9-2359.3c172.4-46,277.8-109.2,417.6-249.1c191.6-193.5,277.8-388.9,277.8-634.1c0-507.7-421.5-929.2-929.2-929.2c-245.2,0-440.6,86.2-634.1,277.8c-205,203.1-289.3,417.6-272.1,695.4c17.2,249.1,109.2,446.4,298.9,626.5c93.9,90,274,189.7,398.5,218.4C7650.3-2326.8,7866.8-2330.6,7977.9-2359.3z"/></g></g>
</svg>